M48
;Layer_Color=9474304
;FILE_FORMAT=4:4
METRIC,LZ
;TYPE=PLATED
T01F00S00C0.3000
T02F00S00C0.5080
T03F00S00C0.7620
T04F00S00C1.5240
%
T01
X0055626Y0012192
Y0013208
Y0014224
Y001524
Y0016256
Y0017272
Y0018288
Y0019304
X00558038Y0021844
Y002286
Y0023876
Y0024892
Y0025908
Y0026924
Y002794
Y0028956
X003175Y0021082
X0023368Y001778
T02
X0014224Y0011176
X0016764
X00363474Y00213106
X0038608Y00211836
T03
X002794Y000254
X003048
X003302
X003556
X00381
X004064
X004318
X004572
X00508
X005334
X005588
X005842
X006096
X00635
Y00508
X006096
X005842
X005588
X005334
X00508
X004826
X004572
X0041656
X0039104Y00508018
X0036564
X00340241
X00314841
X0028944
X00264041
X0023864
X00213241
X0018784
T04
X0003556Y0022098
X000381Y0029972
M30
