G04*
G04 #@! TF.GenerationSoftware,Altium Limited,Altium Designer,24.1.2 (44)*
G04*
G04 Layer_Color=2752767*
%FSLAX44Y44*%
%MOMM*%
G71*
G04*
G04 #@! TF.SameCoordinates,3802B111-1C7E-4A17-9201-CC646305CB20*
G04*
G04*
G04 #@! TF.FilePolarity,Positive*
G04*
G01*
G75*
%ADD28C,0.1270*%
%ADD32C,0.1693*%
D28*
X477520Y502920D02*
Y513080D01*
X487680D01*
Y502920D01*
X477520D01*
X452120D02*
Y513080D01*
X462280D01*
Y502920D01*
X452120D01*
X502920D02*
Y513080D01*
X513080D01*
Y502920D01*
X502920D01*
X528320D02*
Y513080D01*
X538480D01*
Y502920D01*
X528320D01*
X553720D02*
Y513080D01*
X563880D01*
Y502920D01*
X553720D01*
X579120D02*
Y513080D01*
X589280D01*
Y502920D01*
X579120D01*
X604520D02*
Y513080D01*
X614680D01*
Y502920D01*
X604520D01*
X629920D02*
Y513080D01*
X640080D01*
Y502920D01*
X629920D01*
Y20320D02*
Y30480D01*
X640080D01*
Y20320D01*
X629920D01*
X604520D02*
Y30480D01*
X614680D01*
Y20320D01*
X604520D01*
X579120D02*
Y30480D01*
X589280D01*
Y20320D01*
X579120D01*
X553720D02*
Y30480D01*
X563880D01*
Y20320D01*
X553720D01*
X502920D02*
Y30480D01*
X513080D01*
Y20320D01*
X502920D01*
X528320D02*
Y30480D01*
X538480D01*
Y20320D01*
X528320D01*
X411480Y502920D02*
Y513080D01*
X421640D01*
Y502920D01*
X411480D01*
X385961Y502938D02*
Y513098D01*
X396120D01*
Y502938D01*
X385961D01*
X360560D02*
Y513098D01*
X370720D01*
Y502938D01*
X360560D01*
X335160D02*
Y513098D01*
X345321D01*
Y502938D01*
X335160D01*
X309760D02*
Y513098D01*
X319921D01*
Y502938D01*
X309760D01*
X284361D02*
Y513098D01*
X294520D01*
Y502938D01*
X284361D01*
X258960D02*
Y513098D01*
X269121D01*
Y502938D01*
X258960D01*
X233561D02*
Y513098D01*
X243720D01*
Y502938D01*
X233561D01*
X182761D02*
Y513098D01*
X192920D01*
Y502938D01*
X182761D01*
X208160D02*
Y513098D01*
X218321D01*
Y502938D01*
X208160D01*
X299720Y20320D02*
Y30480D01*
X309880D01*
Y20320D01*
X299720D01*
X274320D02*
Y30480D01*
X284480D01*
Y20320D01*
X274320D01*
X325120D02*
Y30480D01*
X335280D01*
Y20320D01*
X325120D01*
X350520D02*
Y30480D01*
X360680D01*
Y20320D01*
X350520D01*
X375920D02*
Y30480D01*
X386080D01*
Y20320D01*
X375920D01*
X401320D02*
Y30480D01*
X411480D01*
Y20320D01*
X401320D01*
X426720D02*
Y30480D01*
X436880D01*
Y20320D01*
X426720D01*
X452120D02*
Y30480D01*
X462280D01*
Y20320D01*
X452120D01*
X142240Y106680D02*
X144780Y109220D01*
X147320D01*
X144780Y111760D01*
X147320Y114300D01*
X144780D01*
X142240Y116840D01*
X139700Y114300D01*
X137160D01*
X139700Y111760D01*
X137160Y109220D01*
X139700D01*
X142240Y106680D01*
X558038Y284480D02*
X552958Y294640D01*
X563118D01*
X558038Y284480D01*
Y274320D02*
X552958Y284480D01*
X563118D01*
X558038Y274320D01*
Y264160D02*
X552958Y274320D01*
X563118D01*
X558038Y264160D01*
Y254000D02*
X552958Y264160D01*
X563118D01*
X558038Y254000D01*
Y243840D02*
X552958Y254000D01*
X563118D01*
X558038Y243840D01*
Y233680D02*
X552958Y243840D01*
X563118D01*
X558038Y233680D01*
Y223520D02*
X552958Y233680D01*
X563118D01*
X558038Y223520D01*
Y213360D02*
X552958Y223520D01*
X563118D01*
X558038Y213360D01*
X556260Y116840D02*
X551180Y127000D01*
X561340D01*
X556260Y116840D01*
Y127000D02*
X551180Y137160D01*
X561340D01*
X556260Y127000D01*
Y137160D02*
X551180Y147320D01*
X561340D01*
X556260Y137160D01*
Y147320D02*
X551180Y157480D01*
X561340D01*
X556260Y147320D01*
Y157480D02*
X551180Y167640D01*
X561340D01*
X556260Y157480D01*
Y167640D02*
X551180Y177800D01*
X561340D01*
X556260Y167640D01*
Y177800D02*
X551180Y187960D01*
X561340D01*
X556260Y177800D01*
Y187960D02*
X551180Y198120D01*
X561340D01*
X556260Y187960D01*
X386080Y206756D02*
X388620Y209296D01*
X391160D01*
X388620Y211836D01*
X391160Y214376D01*
X388620D01*
X386080Y216916D01*
X383540Y214376D01*
X381000D01*
X383540Y211836D01*
X381000Y209296D01*
X383540D01*
X386080Y206756D01*
X363474Y208026D02*
X366014Y210566D01*
X368554D01*
X366014Y213106D01*
X368554Y215646D01*
X366014D01*
X363474Y218186D01*
X360934Y215646D01*
X358394D01*
X360934Y213106D01*
X358394Y210566D01*
X360934D01*
X363474Y208026D01*
X317500Y205740D02*
X312420Y215900D01*
X322580D01*
X317500Y205740D01*
X233680Y172720D02*
X228600Y182880D01*
X238760D01*
X233680Y172720D01*
X167640Y106680D02*
X170180Y109220D01*
X172720D01*
X170180Y111760D01*
X172720Y114300D01*
X170180D01*
X167640Y116840D01*
X165100Y114300D01*
X162560D01*
X165100Y111760D01*
X162560Y109220D01*
X165100D01*
X167640Y106680D01*
D32*
X40640Y220980D02*
G03*
X40640Y220980I-5080J0D01*
G01*
X43180Y299720D02*
G03*
X43180Y299720I-5080J0D01*
G01*
M02*
