G04*
G04 #@! TF.GenerationSoftware,Altium Limited,Altium Designer,24.1.2 (44)*
G04*
G04 Layer_Physical_Order=1*
G04 Layer_Color=255*
%FSLAX44Y44*%
%MOMM*%
G71*
G04*
G04 #@! TF.SameCoordinates,3802B111-1C7E-4A17-9201-CC646305CB20*
G04*
G04*
G04 #@! TF.FilePolarity,Positive*
G04*
G01*
G75*
%ADD14C,0.2540*%
%ADD15R,0.4500X0.4500*%
%ADD16R,0.4500X0.3500*%
%ADD17R,1.8000X7.5000*%
%ADD18R,0.5321X1.2544*%
G04:AMPARAMS|DCode=19|XSize=1.2544mm|YSize=0.5321mm|CornerRadius=0.2661mm|HoleSize=0mm|Usage=FLASHONLY|Rotation=90.000|XOffset=0mm|YOffset=0mm|HoleType=Round|Shape=RoundedRectangle|*
%AMROUNDEDRECTD19*
21,1,1.2544,0.0000,0,0,90.0*
21,1,0.7223,0.5321,0,0,90.0*
1,1,0.5321,0.0000,0.3611*
1,1,0.5321,0.0000,-0.3611*
1,1,0.5321,0.0000,-0.3611*
1,1,0.5321,0.0000,0.3611*
%
%ADD19ROUNDEDRECTD19*%
%ADD20R,1.4000X0.9500*%
%ADD21R,0.7000X6.7600*%
%ADD22R,3.9000X6.7600*%
%ADD23R,1.0500X0.6500*%
G04:AMPARAMS|DCode=24|XSize=1.3mm|YSize=0.76mm|CornerRadius=0.095mm|HoleSize=0mm|Usage=FLASHONLY|Rotation=0.000|XOffset=0mm|YOffset=0mm|HoleType=Round|Shape=RoundedRectangle|*
%AMROUNDEDRECTD24*
21,1,1.3000,0.5700,0,0,0.0*
21,1,1.1100,0.7600,0,0,0.0*
1,1,0.1900,0.5550,-0.2850*
1,1,0.1900,-0.5550,-0.2850*
1,1,0.1900,-0.5550,0.2850*
1,1,0.1900,0.5550,0.2850*
%
%ADD24ROUNDEDRECTD24*%
%ADD25C,1.5240*%
%ADD26R,1.5240X1.5240*%
%ADD27C,2.5400*%
%ADD28C,0.1270*%
%ADD29C,0.3810*%
%ADD30C,0.7112*%
%ADD31C,0.6000*%
G36*
X418084Y193040D02*
X473974Y24449D01*
X473258Y23400D01*
X442422Y21818D01*
X441623Y22806D01*
X441960Y24062D01*
Y26738D01*
X441268Y29322D01*
X439930Y31638D01*
X438038Y33530D01*
X435722Y34868D01*
X433138Y35560D01*
X430462D01*
X427878Y34868D01*
X425562Y33530D01*
X423670Y31638D01*
X422332Y29322D01*
X421640Y26738D01*
Y24062D01*
X422179Y22051D01*
X421420Y20740D01*
X416590Y20492D01*
X415935Y21730D01*
X416560Y24062D01*
Y26738D01*
X415868Y29322D01*
X414530Y31638D01*
X412638Y33530D01*
X410322Y34868D01*
X407738Y35560D01*
X405062D01*
X402478Y34868D01*
X400162Y33530D01*
X398270Y31638D01*
X396932Y29322D01*
X396240Y26738D01*
Y24062D01*
X396932Y21478D01*
X397443Y20594D01*
X396836Y19479D01*
X373634Y18288D01*
X372872Y32258D01*
X363474Y41656D01*
X326644D01*
X296672Y71628D01*
Y155981D01*
X299625Y188750D01*
X308170D01*
Y197330D01*
X309428Y197358D01*
X355430D01*
Y194090D01*
X371010D01*
Y197358D01*
X378290D01*
Y194870D01*
X393870D01*
Y197358D01*
X418084D01*
Y193040D01*
D02*
G37*
G36*
X491490Y325882D02*
X486664Y321056D01*
Y289035D01*
X486580Y287800D01*
X474500D01*
Y257810D01*
X480540D01*
Y245110D01*
X474500D01*
Y215120D01*
X486360D01*
Y116078D01*
X469392D01*
X438658Y146812D01*
Y219710D01*
X384556D01*
X377698Y226568D01*
X227076D01*
Y219964D01*
X182118Y175006D01*
Y136906D01*
X108607Y136906D01*
X107442Y138176D01*
Y139954D01*
X109220Y189738D01*
X10414Y288544D01*
Y323596D01*
X12446Y333248D01*
X18796Y339598D01*
X477774D01*
X491490Y325882D01*
D02*
G37*
G36*
X596392Y314706D02*
Y135890D01*
X566420Y105918D01*
X497840D01*
X488950Y114808D01*
Y215646D01*
X490982Y217678D01*
X491236Y319024D01*
X503174Y330962D01*
X580136D01*
X596392Y314706D01*
D02*
G37*
G36*
X255566Y139050D02*
X255029Y101264D01*
X254085Y100415D01*
X243840Y101346D01*
X226060Y110435D01*
X207209Y111506D01*
Y129286D01*
X226060D01*
Y139954D01*
X254674D01*
X255566Y139050D01*
D02*
G37*
%LPC*%
G36*
X39601Y314960D02*
X39370D01*
Y300990D01*
X53340D01*
Y301221D01*
X52754Y304165D01*
X51606Y306939D01*
X49938Y309435D01*
X47815Y311558D01*
X45319Y313225D01*
X42545Y314374D01*
X39601Y314960D01*
D02*
G37*
G36*
X36830D02*
X36599D01*
X33655Y314374D01*
X30881Y313225D01*
X28385Y311558D01*
X26262Y309435D01*
X24595Y306939D01*
X23446Y304165D01*
X22860Y301221D01*
Y300990D01*
X36830D01*
Y314960D01*
D02*
G37*
G36*
X53340Y298450D02*
X39370D01*
Y284480D01*
X39601D01*
X42545Y285066D01*
X45319Y286215D01*
X47815Y287882D01*
X49938Y290005D01*
X51606Y292501D01*
X52754Y295275D01*
X53340Y298219D01*
Y298450D01*
D02*
G37*
G36*
X36830D02*
X22860D01*
Y298219D01*
X23446Y295275D01*
X24595Y292501D01*
X26262Y290005D01*
X28385Y287882D01*
X30881Y286215D01*
X33655Y285066D01*
X36599Y284480D01*
X36830D01*
Y298450D01*
D02*
G37*
G36*
X173190Y153848D02*
X168910D01*
Y148710D01*
X176748D01*
Y150290D01*
X176478Y151652D01*
X175706Y152806D01*
X174552Y153577D01*
X173190Y153848D01*
D02*
G37*
G36*
X166370D02*
X162090D01*
X160728Y153577D01*
X159574Y152806D01*
X158802Y151652D01*
X158532Y150290D01*
Y148710D01*
X166370D01*
Y153848D01*
D02*
G37*
G36*
X147790Y153728D02*
X143510D01*
Y148590D01*
X151348D01*
Y150170D01*
X151077Y151532D01*
X150306Y152686D01*
X149152Y153457D01*
X147790Y153728D01*
D02*
G37*
G36*
X140970D02*
X136690D01*
X135328Y153457D01*
X134174Y152686D01*
X133403Y151532D01*
X133132Y150170D01*
Y148590D01*
X140970D01*
Y153728D01*
D02*
G37*
G36*
X176748Y146170D02*
X168910D01*
Y141032D01*
X173190D01*
X174552Y141302D01*
X175706Y142074D01*
X176478Y143228D01*
X176748Y144590D01*
Y146170D01*
D02*
G37*
G36*
X166370D02*
X158532D01*
Y144590D01*
X158802Y143228D01*
X159574Y142074D01*
X160728Y141302D01*
X162090Y141032D01*
X166370D01*
Y146170D01*
D02*
G37*
G36*
X151348Y146050D02*
X143510D01*
Y140912D01*
X147790D01*
X149152Y141182D01*
X150306Y141954D01*
X151077Y143108D01*
X151348Y144470D01*
Y146050D01*
D02*
G37*
G36*
X140970D02*
X133132D01*
Y144470D01*
X133403Y143108D01*
X134174Y141954D01*
X135328Y141182D01*
X136690Y140912D01*
X140970D01*
Y146050D01*
D02*
G37*
G36*
X559308Y295030D02*
Y290830D01*
X563508D01*
X562735Y292698D01*
X561176Y294257D01*
X559308Y295030D01*
D02*
G37*
G36*
X556768D02*
X554900Y294257D01*
X553341Y292698D01*
X552568Y290830D01*
X556768D01*
Y295030D01*
D02*
G37*
G36*
X563508Y288290D02*
X552568D01*
X553341Y286422D01*
X554470Y285293D01*
X554762Y284480D01*
X554470Y283667D01*
X553341Y282538D01*
X552568Y280670D01*
X563508D01*
X562735Y282538D01*
X561606Y283667D01*
X561314Y284480D01*
X561606Y285293D01*
X562735Y286422D01*
X563508Y288290D01*
D02*
G37*
G36*
Y278130D02*
X552568D01*
X553341Y276262D01*
X554470Y275133D01*
X554762Y274320D01*
X554470Y273507D01*
X553341Y272378D01*
X552568Y270510D01*
X563508D01*
X562735Y272378D01*
X561606Y273507D01*
X561314Y274320D01*
X561606Y275133D01*
X562735Y276262D01*
X563508Y278130D01*
D02*
G37*
G36*
Y267970D02*
X552568D01*
X553341Y266102D01*
X554470Y264973D01*
X554762Y264160D01*
X554470Y263347D01*
X553341Y262218D01*
X552568Y260350D01*
X563508D01*
X562735Y262218D01*
X561606Y263347D01*
X561314Y264160D01*
X561606Y264973D01*
X562735Y266102D01*
X563508Y267970D01*
D02*
G37*
G36*
Y257810D02*
X552568D01*
X553341Y255942D01*
X554470Y254813D01*
X554762Y254000D01*
X554470Y253187D01*
X553341Y252058D01*
X552568Y250190D01*
X563508D01*
X562735Y252058D01*
X561606Y253187D01*
X561314Y254000D01*
X561606Y254813D01*
X562735Y255942D01*
X563508Y257810D01*
D02*
G37*
G36*
Y247650D02*
X552568D01*
X553341Y245782D01*
X554470Y244653D01*
X554762Y243840D01*
X554470Y243027D01*
X553341Y241898D01*
X552568Y240030D01*
X563508D01*
X562735Y241898D01*
X561606Y243027D01*
X561314Y243840D01*
X561606Y244653D01*
X562735Y245782D01*
X563508Y247650D01*
D02*
G37*
G36*
Y237490D02*
X552568D01*
X553341Y235622D01*
X554470Y234493D01*
X554762Y233680D01*
X554470Y232867D01*
X553341Y231738D01*
X552568Y229870D01*
X563508D01*
X562735Y231738D01*
X561606Y232867D01*
X561314Y233680D01*
X561606Y234493D01*
X562735Y235622D01*
X563508Y237490D01*
D02*
G37*
G36*
Y227330D02*
X552568D01*
X553341Y225462D01*
X554470Y224333D01*
X554762Y223520D01*
X554470Y222707D01*
X553341Y221578D01*
X552568Y219710D01*
X563508D01*
X562735Y221578D01*
X561606Y222707D01*
X561314Y223520D01*
X561606Y224333D01*
X562735Y225462D01*
X563508Y227330D01*
D02*
G37*
G36*
Y217170D02*
X559308D01*
Y212970D01*
X561176Y213743D01*
X562735Y215302D01*
X563508Y217170D01*
D02*
G37*
G36*
X556768D02*
X552568D01*
X553341Y215302D01*
X554900Y213743D01*
X556768Y212970D01*
Y217170D01*
D02*
G37*
G36*
X557530Y198510D02*
Y194310D01*
X561730D01*
X560957Y196178D01*
X559398Y197737D01*
X557530Y198510D01*
D02*
G37*
G36*
X554990D02*
X553122Y197737D01*
X551563Y196178D01*
X550790Y194310D01*
X554990D01*
Y198510D01*
D02*
G37*
G36*
X561730Y191770D02*
X550790D01*
X551563Y189902D01*
X552692Y188773D01*
X552984Y187960D01*
X552692Y187147D01*
X551563Y186018D01*
X550790Y184150D01*
X561730D01*
X560957Y186018D01*
X559828Y187147D01*
X559536Y187960D01*
X559828Y188773D01*
X560957Y189902D01*
X561730Y191770D01*
D02*
G37*
G36*
Y181610D02*
X550790D01*
X551563Y179742D01*
X552692Y178613D01*
X552984Y177800D01*
X552692Y176987D01*
X551563Y175858D01*
X550790Y173990D01*
X561730D01*
X560957Y175858D01*
X559828Y176987D01*
X559536Y177800D01*
X559828Y178613D01*
X560957Y179742D01*
X561730Y181610D01*
D02*
G37*
G36*
Y171450D02*
X550790D01*
X551563Y169582D01*
X552692Y168453D01*
X552984Y167640D01*
X552692Y166827D01*
X551563Y165698D01*
X550790Y163830D01*
X561730D01*
X560957Y165698D01*
X559828Y166827D01*
X559536Y167640D01*
X559828Y168453D01*
X560957Y169582D01*
X561730Y171450D01*
D02*
G37*
G36*
Y161290D02*
X550790D01*
X551563Y159422D01*
X552692Y158293D01*
X552984Y157480D01*
X552692Y156667D01*
X551563Y155538D01*
X550790Y153670D01*
X561730D01*
X560957Y155538D01*
X559828Y156667D01*
X559536Y157480D01*
X559828Y158293D01*
X560957Y159422D01*
X561730Y161290D01*
D02*
G37*
G36*
Y151130D02*
X550790D01*
X551563Y149262D01*
X552692Y148133D01*
X552984Y147320D01*
X552692Y146507D01*
X551563Y145378D01*
X550790Y143510D01*
X561730D01*
X560957Y145378D01*
X559828Y146507D01*
X559536Y147320D01*
X559828Y148133D01*
X560957Y149262D01*
X561730Y151130D01*
D02*
G37*
G36*
Y140970D02*
X550790D01*
X551563Y139102D01*
X552692Y137973D01*
X552984Y137160D01*
X552692Y136347D01*
X551563Y135218D01*
X550790Y133350D01*
X561730D01*
X560957Y135218D01*
X559828Y136347D01*
X559536Y137160D01*
X559828Y137973D01*
X560957Y139102D01*
X561730Y140970D01*
D02*
G37*
G36*
Y130810D02*
X550790D01*
X551563Y128942D01*
X552692Y127813D01*
X552984Y127000D01*
X552692Y126187D01*
X551563Y125058D01*
X550790Y123190D01*
X561730D01*
X560957Y125058D01*
X559828Y126187D01*
X559536Y127000D01*
X559828Y127813D01*
X560957Y128942D01*
X561730Y130810D01*
D02*
G37*
G36*
Y120650D02*
X557530D01*
Y116450D01*
X559398Y117223D01*
X560957Y118782D01*
X561730Y120650D01*
D02*
G37*
G36*
X554990D02*
X550790D01*
X551563Y118782D01*
X553122Y117223D01*
X554990Y116450D01*
Y120650D01*
D02*
G37*
%LPD*%
D14*
X248920Y116840D02*
X250800Y118720D01*
Y192354D01*
X191077Y504781D02*
X197783D01*
X557784Y414274D02*
X609600Y362458D01*
X288290Y414274D02*
X557784D01*
X187840Y508018D02*
X191077Y504781D01*
X197783D02*
X288290Y414274D01*
X571754Y420116D02*
X621538Y370332D01*
X220598Y505588D02*
X306070Y420116D01*
X571754D01*
X215671Y505588D02*
X220598D01*
X213241Y508018D02*
X215671Y505588D01*
X621538Y38862D02*
X635000Y25400D01*
X621538Y38862D02*
Y370332D01*
X609600Y25400D02*
Y362458D01*
X260300Y213360D02*
X293180D01*
X303340Y203200D01*
X303400Y193060D02*
Y203140D01*
D15*
X311340Y203200D02*
D03*
X303340D02*
D03*
D16*
X303380Y193040D02*
D03*
X309880D02*
D03*
D17*
X248920Y116840D02*
D03*
X304920D02*
D03*
D18*
X241300Y192354D02*
D03*
D19*
X250800D02*
D03*
X260300D02*
D03*
Y213360D02*
D03*
X250800D02*
D03*
X241300D02*
D03*
D20*
X215138Y120650D02*
D03*
Y139150D02*
D03*
D21*
X480540Y251460D02*
D03*
X540540D02*
D03*
X478480Y154940D02*
D03*
X538480D02*
D03*
D22*
X510540Y251460D02*
D03*
X508480Y154940D02*
D03*
D23*
X386080Y200660D02*
D03*
Y183660D02*
D03*
X363220Y199880D02*
D03*
Y182880D02*
D03*
D24*
X167640Y147440D02*
D03*
Y129540D02*
D03*
X142240Y147320D02*
D03*
Y129420D02*
D03*
D25*
X482600Y508000D02*
D03*
X508000D02*
D03*
X533400D02*
D03*
X558800D02*
D03*
X584200D02*
D03*
X609600D02*
D03*
X635000D02*
D03*
Y25400D02*
D03*
X609600D02*
D03*
X584200D02*
D03*
X558800D02*
D03*
X533400D02*
D03*
X416560Y508000D02*
D03*
X391040Y508018D02*
D03*
X365640D02*
D03*
X340241D02*
D03*
X314841D02*
D03*
X289440D02*
D03*
X264041D02*
D03*
X238640D02*
D03*
X213241D02*
D03*
X304800Y25400D02*
D03*
X330200D02*
D03*
X355600D02*
D03*
X381000D02*
D03*
X406400D02*
D03*
X431800D02*
D03*
X457200D02*
D03*
D26*
Y508000D02*
D03*
X508000Y25400D02*
D03*
X187840Y508018D02*
D03*
X279400Y25400D02*
D03*
D27*
X35560Y220980D02*
D03*
X38100Y299720D02*
D03*
D28*
X385826Y200914D02*
X386080Y201168D01*
X303340Y193080D02*
X303380Y193040D01*
X316595Y208455D02*
Y209915D01*
X317500Y210820D01*
X385826Y200914D02*
X386080Y200660D01*
X363220Y199880D02*
X363474Y200134D01*
X360680Y202420D02*
X363220Y199880D01*
D29*
X386080Y201168D02*
Y211836D01*
X250800Y213360D02*
Y241402D01*
X215138Y183558D02*
X240821Y209241D01*
Y212880D02*
X241300Y213360D01*
X215138Y139150D02*
Y183558D01*
X240821Y209241D02*
Y212880D01*
X250800Y206014D02*
Y213360D01*
Y206014D02*
X257906Y198909D01*
Y198581D02*
Y198909D01*
Y198581D02*
X260300Y196187D01*
Y192354D02*
Y196187D01*
X233680Y177800D02*
X239476D01*
X241365Y179689D01*
Y192290D01*
X311340Y203200D02*
X316595Y208455D01*
X363474Y200134D02*
Y213106D01*
X167640Y111760D02*
Y129540D01*
X142240Y111760D02*
Y129420D01*
D30*
Y111760D02*
D03*
X386080Y211836D02*
D03*
X363474Y213106D02*
D03*
X167640Y111760D02*
D03*
D31*
X558038Y289560D02*
D03*
Y279400D02*
D03*
Y269240D02*
D03*
Y259080D02*
D03*
Y248920D02*
D03*
Y238760D02*
D03*
Y228600D02*
D03*
Y218440D02*
D03*
X556260Y121920D02*
D03*
Y132080D02*
D03*
Y142240D02*
D03*
Y152400D02*
D03*
Y162560D02*
D03*
Y172720D02*
D03*
Y182880D02*
D03*
Y193040D02*
D03*
X317500Y210820D02*
D03*
X233680Y177800D02*
D03*
M02*
