G04*
G04 #@! TF.GenerationSoftware,Altium Limited,Altium Designer,24.1.2 (44)*
G04*
G04 Layer_Color=16711935*
%FSLAX44Y44*%
%MOMM*%
G71*
G04*
G04 #@! TF.SameCoordinates,3802B111-1C7E-4A17-9201-CC646305CB20*
G04*
G04*
G04 #@! TF.FilePolarity,Negative*
G04*
G01*
G75*
%ADD25C,1.5240*%
%ADD26R,1.5240X1.5240*%
%ADD27C,2.5400*%
D25*
X482600Y508000D02*
D03*
X508000D02*
D03*
X533400D02*
D03*
X558800D02*
D03*
X584200D02*
D03*
X609600D02*
D03*
X635000D02*
D03*
Y25400D02*
D03*
X609600D02*
D03*
X584200D02*
D03*
X558800D02*
D03*
X533400D02*
D03*
X416560Y508000D02*
D03*
X391040Y508018D02*
D03*
X365640D02*
D03*
X340241D02*
D03*
X314841D02*
D03*
X289440D02*
D03*
X264041D02*
D03*
X238640D02*
D03*
X213241D02*
D03*
X304800Y25400D02*
D03*
X330200D02*
D03*
X355600D02*
D03*
X381000D02*
D03*
X406400D02*
D03*
X431800D02*
D03*
X457200D02*
D03*
D26*
Y508000D02*
D03*
X508000Y25400D02*
D03*
X187840Y508018D02*
D03*
X279400Y25400D02*
D03*
D27*
X35560Y220980D02*
D03*
X38100Y299720D02*
D03*
M02*
