G04*
G04 #@! TF.GenerationSoftware,Altium Limited,Altium Designer,24.1.2 (44)*
G04*
G04 Layer_Color=8388736*
%FSLAX44Y44*%
%MOMM*%
G71*
G04*
G04 #@! TF.SameCoordinates,3802B111-1C7E-4A17-9201-CC646305CB20*
G04*
G04*
G04 #@! TF.FilePolarity,Negative*
G04*
G01*
G75*
%ADD15R,0.4500X0.4500*%
%ADD16R,0.4500X0.3500*%
%ADD17R,1.8000X7.5000*%
%ADD18R,0.5321X1.2544*%
G04:AMPARAMS|DCode=19|XSize=1.2544mm|YSize=0.5321mm|CornerRadius=0.2661mm|HoleSize=0mm|Usage=FLASHONLY|Rotation=90.000|XOffset=0mm|YOffset=0mm|HoleType=Round|Shape=RoundedRectangle|*
%AMROUNDEDRECTD19*
21,1,1.2544,0.0000,0,0,90.0*
21,1,0.7223,0.5321,0,0,90.0*
1,1,0.5321,0.0000,0.3611*
1,1,0.5321,0.0000,-0.3611*
1,1,0.5321,0.0000,-0.3611*
1,1,0.5321,0.0000,0.3611*
%
%ADD19ROUNDEDRECTD19*%
%ADD20R,1.4000X0.9500*%
%ADD21R,0.7000X6.7600*%
%ADD22R,3.9000X6.7600*%
%ADD23R,1.0500X0.6500*%
G04:AMPARAMS|DCode=24|XSize=1.3mm|YSize=0.76mm|CornerRadius=0.095mm|HoleSize=0mm|Usage=FLASHONLY|Rotation=0.000|XOffset=0mm|YOffset=0mm|HoleType=Round|Shape=RoundedRectangle|*
%AMROUNDEDRECTD24*
21,1,1.3000,0.5700,0,0,0.0*
21,1,1.1100,0.7600,0,0,0.0*
1,1,0.1900,0.5550,-0.2850*
1,1,0.1900,-0.5550,-0.2850*
1,1,0.1900,-0.5550,0.2850*
1,1,0.1900,0.5550,0.2850*
%
%ADD24ROUNDEDRECTD24*%
%ADD25C,1.5240*%
%ADD26R,1.5240X1.5240*%
%ADD27C,2.5400*%
D15*
X311340Y203200D02*
D03*
X303340D02*
D03*
D16*
X303380Y193040D02*
D03*
X309880D02*
D03*
D17*
X248920Y116840D02*
D03*
X304920D02*
D03*
D18*
X241300Y192354D02*
D03*
D19*
X250800D02*
D03*
X260300D02*
D03*
Y213360D02*
D03*
X250800D02*
D03*
X241300D02*
D03*
D20*
X215138Y120650D02*
D03*
Y139150D02*
D03*
D21*
X480540Y251460D02*
D03*
X540540D02*
D03*
X478480Y154940D02*
D03*
X538480D02*
D03*
D22*
X510540Y251460D02*
D03*
X508480Y154940D02*
D03*
D23*
X386080Y200660D02*
D03*
Y183660D02*
D03*
X363220Y199880D02*
D03*
Y182880D02*
D03*
D24*
X167640Y147440D02*
D03*
Y129540D02*
D03*
X142240Y147320D02*
D03*
Y129420D02*
D03*
D25*
X482600Y508000D02*
D03*
X508000D02*
D03*
X533400D02*
D03*
X558800D02*
D03*
X584200D02*
D03*
X609600D02*
D03*
X635000D02*
D03*
Y25400D02*
D03*
X609600D02*
D03*
X584200D02*
D03*
X558800D02*
D03*
X533400D02*
D03*
X416560Y508000D02*
D03*
X391040Y508018D02*
D03*
X365640D02*
D03*
X340241D02*
D03*
X314841D02*
D03*
X289440D02*
D03*
X264041D02*
D03*
X238640D02*
D03*
X213241D02*
D03*
X304800Y25400D02*
D03*
X330200D02*
D03*
X355600D02*
D03*
X381000D02*
D03*
X406400D02*
D03*
X431800D02*
D03*
X457200D02*
D03*
D26*
Y508000D02*
D03*
X508000Y25400D02*
D03*
X187840Y508018D02*
D03*
X279400Y25400D02*
D03*
D27*
X35560Y220980D02*
D03*
X38100Y299720D02*
D03*
M02*
