G04*
G04 #@! TF.GenerationSoftware,Altium Limited,Altium Designer,24.1.2 (44)*
G04*
G04 Layer_Physical_Order=2*
G04 Layer_Color=16711680*
%FSLAX44Y44*%
%MOMM*%
G71*
G04*
G04 #@! TF.SameCoordinates,3802B111-1C7E-4A17-9201-CC646305CB20*
G04*
G04*
G04 #@! TF.FilePolarity,Positive*
G04*
G01*
G75*
%ADD25C,1.5240*%
%ADD26R,1.5240X1.5240*%
%ADD27C,2.5400*%
%ADD30C,0.7112*%
%ADD31C,0.6000*%
G36*
X657810Y406400D02*
X658007Y405409D01*
X658569Y404569D01*
X689560Y373577D01*
Y39173D01*
X664919Y14531D01*
X664357Y13691D01*
X664160Y12700D01*
Y2590D01*
X2590D01*
Y530810D01*
X657810D01*
Y406400D01*
D02*
G37*
%LPC*%
G36*
X265378Y518178D02*
X265310D01*
Y509288D01*
X274200D01*
Y509356D01*
X273508Y511940D01*
X272171Y514256D01*
X270279Y516148D01*
X267962Y517486D01*
X265378Y518178D01*
D02*
G37*
G36*
X262771D02*
X262703D01*
X260119Y517486D01*
X257802Y516148D01*
X255910Y514256D01*
X254573Y511940D01*
X253881Y509356D01*
Y509288D01*
X262771D01*
Y518178D01*
D02*
G37*
G36*
X392378D02*
X389703D01*
X387119Y517486D01*
X384802Y516148D01*
X382910Y514256D01*
X381573Y511940D01*
X380881Y509356D01*
Y506680D01*
X381573Y504096D01*
X382910Y501780D01*
X384802Y499888D01*
X387119Y498550D01*
X389703Y497858D01*
X392378D01*
X394962Y498550D01*
X397279Y499888D01*
X399171Y501780D01*
X400508Y504096D01*
X401200Y506680D01*
Y509356D01*
X400508Y511940D01*
X399171Y514256D01*
X397279Y516148D01*
X394962Y517486D01*
X392378Y518178D01*
D02*
G37*
G36*
X366978D02*
X364303D01*
X361719Y517486D01*
X359402Y516148D01*
X357510Y514256D01*
X356173Y511940D01*
X355480Y509356D01*
Y506680D01*
X356173Y504096D01*
X357510Y501780D01*
X359402Y499888D01*
X361719Y498550D01*
X364303Y497858D01*
X366978D01*
X369562Y498550D01*
X371879Y499888D01*
X373771Y501780D01*
X375108Y504096D01*
X375801Y506680D01*
Y509356D01*
X375108Y511940D01*
X373771Y514256D01*
X371879Y516148D01*
X369562Y517486D01*
X366978Y518178D01*
D02*
G37*
G36*
X341578D02*
X338903D01*
X336319Y517486D01*
X334002Y516148D01*
X332110Y514256D01*
X330773Y511940D01*
X330080Y509356D01*
Y506680D01*
X330773Y504096D01*
X332110Y501780D01*
X334002Y499888D01*
X336319Y498550D01*
X338903Y497858D01*
X341578D01*
X344162Y498550D01*
X346479Y499888D01*
X348371Y501780D01*
X349708Y504096D01*
X350401Y506680D01*
Y509356D01*
X349708Y511940D01*
X348371Y514256D01*
X346479Y516148D01*
X344162Y517486D01*
X341578Y518178D01*
D02*
G37*
G36*
X316178D02*
X313503D01*
X310919Y517486D01*
X308602Y516148D01*
X306710Y514256D01*
X305373Y511940D01*
X304681Y509356D01*
Y506680D01*
X305373Y504096D01*
X306710Y501780D01*
X308602Y499888D01*
X310919Y498550D01*
X313503Y497858D01*
X316178D01*
X318762Y498550D01*
X321079Y499888D01*
X322971Y501780D01*
X324308Y504096D01*
X325000Y506680D01*
Y509356D01*
X324308Y511940D01*
X322971Y514256D01*
X321079Y516148D01*
X318762Y517486D01*
X316178Y518178D01*
D02*
G37*
G36*
X290778D02*
X288103D01*
X285519Y517486D01*
X283202Y516148D01*
X281311Y514256D01*
X279973Y511940D01*
X279280Y509356D01*
Y506680D01*
X279973Y504096D01*
X281311Y501780D01*
X283202Y499888D01*
X285519Y498550D01*
X288103Y497858D01*
X290778D01*
X293362Y498550D01*
X295679Y499888D01*
X297571Y501780D01*
X298908Y504096D01*
X299601Y506680D01*
Y509356D01*
X298908Y511940D01*
X297571Y514256D01*
X295679Y516148D01*
X293362Y517486D01*
X290778Y518178D01*
D02*
G37*
G36*
X274200Y506748D02*
X265310D01*
Y497858D01*
X265378D01*
X267962Y498550D01*
X270279Y499888D01*
X272171Y501780D01*
X273508Y504096D01*
X274200Y506680D01*
Y506748D01*
D02*
G37*
G36*
X262771D02*
X253881D01*
Y506680D01*
X254573Y504096D01*
X255910Y501780D01*
X257802Y499888D01*
X260119Y498550D01*
X262703Y497858D01*
X262771D01*
Y506748D01*
D02*
G37*
G36*
X239978Y518178D02*
X237303D01*
X234719Y517486D01*
X232402Y516148D01*
X230511Y514256D01*
X229173Y511940D01*
X228480Y509356D01*
Y506680D01*
X229173Y504096D01*
X230511Y501780D01*
X232402Y499888D01*
X234719Y498550D01*
X237303Y497858D01*
X239978D01*
X242562Y498550D01*
X244879Y499888D01*
X246771Y501780D01*
X248108Y504096D01*
X248801Y506680D01*
Y509356D01*
X248108Y511940D01*
X246771Y514256D01*
X244879Y516148D01*
X242562Y517486D01*
X239978Y518178D01*
D02*
G37*
G36*
X214578D02*
X211903D01*
X209319Y517486D01*
X207002Y516148D01*
X205110Y514256D01*
X203773Y511940D01*
X203081Y509356D01*
Y506680D01*
X203773Y504096D01*
X205110Y501780D01*
X207002Y499888D01*
X209319Y498550D01*
X211903Y497858D01*
X214578D01*
X217162Y498550D01*
X219479Y499888D01*
X221371Y501780D01*
X222708Y504096D01*
X223400Y506680D01*
Y509356D01*
X222708Y511940D01*
X221371Y514256D01*
X219479Y516148D01*
X217162Y517486D01*
X214578Y518178D01*
D02*
G37*
G36*
X198001D02*
X177680D01*
Y497858D01*
X198001D01*
Y518178D01*
D02*
G37*
G36*
X636338Y518160D02*
X633662D01*
X631078Y517468D01*
X628762Y516130D01*
X626870Y514238D01*
X625532Y511922D01*
X624840Y509338D01*
Y506662D01*
X625532Y504078D01*
X626870Y501762D01*
X628762Y499870D01*
X631078Y498532D01*
X633662Y497840D01*
X636338D01*
X638922Y498532D01*
X641238Y499870D01*
X643130Y501762D01*
X644468Y504078D01*
X645160Y506662D01*
Y509338D01*
X644468Y511922D01*
X643130Y514238D01*
X641238Y516130D01*
X638922Y517468D01*
X636338Y518160D01*
D02*
G37*
G36*
X610938D02*
X608262D01*
X605678Y517468D01*
X603362Y516130D01*
X601470Y514238D01*
X600132Y511922D01*
X599440Y509338D01*
Y506662D01*
X600132Y504078D01*
X601470Y501762D01*
X603362Y499870D01*
X605678Y498532D01*
X608262Y497840D01*
X610938D01*
X613522Y498532D01*
X615838Y499870D01*
X617730Y501762D01*
X619068Y504078D01*
X619760Y506662D01*
Y509338D01*
X619068Y511922D01*
X617730Y514238D01*
X615838Y516130D01*
X613522Y517468D01*
X610938Y518160D01*
D02*
G37*
G36*
X585538D02*
X582862D01*
X580278Y517468D01*
X577962Y516130D01*
X576070Y514238D01*
X574732Y511922D01*
X574040Y509338D01*
Y506662D01*
X574732Y504078D01*
X576070Y501762D01*
X577962Y499870D01*
X580278Y498532D01*
X582862Y497840D01*
X585538D01*
X588122Y498532D01*
X590438Y499870D01*
X592330Y501762D01*
X593668Y504078D01*
X594360Y506662D01*
Y509338D01*
X593668Y511922D01*
X592330Y514238D01*
X590438Y516130D01*
X588122Y517468D01*
X585538Y518160D01*
D02*
G37*
G36*
X560138D02*
X557462D01*
X554878Y517468D01*
X552562Y516130D01*
X550670Y514238D01*
X549332Y511922D01*
X548640Y509338D01*
Y506662D01*
X549332Y504078D01*
X550670Y501762D01*
X552562Y499870D01*
X554878Y498532D01*
X557462Y497840D01*
X560138D01*
X562722Y498532D01*
X565038Y499870D01*
X566930Y501762D01*
X568268Y504078D01*
X568960Y506662D01*
Y509338D01*
X568268Y511922D01*
X566930Y514238D01*
X565038Y516130D01*
X562722Y517468D01*
X560138Y518160D01*
D02*
G37*
G36*
X534738D02*
X532062D01*
X529478Y517468D01*
X527162Y516130D01*
X525270Y514238D01*
X523932Y511922D01*
X523240Y509338D01*
Y506662D01*
X523932Y504078D01*
X525270Y501762D01*
X527162Y499870D01*
X529478Y498532D01*
X532062Y497840D01*
X534738D01*
X537322Y498532D01*
X539638Y499870D01*
X541530Y501762D01*
X542868Y504078D01*
X543560Y506662D01*
Y509338D01*
X542868Y511922D01*
X541530Y514238D01*
X539638Y516130D01*
X537322Y517468D01*
X534738Y518160D01*
D02*
G37*
G36*
X509338D02*
X506662D01*
X504078Y517468D01*
X501762Y516130D01*
X499870Y514238D01*
X498532Y511922D01*
X497840Y509338D01*
Y506662D01*
X498532Y504078D01*
X499870Y501762D01*
X501762Y499870D01*
X504078Y498532D01*
X506662Y497840D01*
X509338D01*
X511922Y498532D01*
X514238Y499870D01*
X516130Y501762D01*
X517468Y504078D01*
X518160Y506662D01*
Y509338D01*
X517468Y511922D01*
X516130Y514238D01*
X514238Y516130D01*
X511922Y517468D01*
X509338Y518160D01*
D02*
G37*
G36*
X483938D02*
X481262D01*
X478678Y517468D01*
X476362Y516130D01*
X474470Y514238D01*
X473132Y511922D01*
X472440Y509338D01*
Y506662D01*
X473132Y504078D01*
X474470Y501762D01*
X476362Y499870D01*
X478678Y498532D01*
X481262Y497840D01*
X483938D01*
X486522Y498532D01*
X488838Y499870D01*
X490730Y501762D01*
X492068Y504078D01*
X492760Y506662D01*
Y509338D01*
X492068Y511922D01*
X490730Y514238D01*
X488838Y516130D01*
X486522Y517468D01*
X483938Y518160D01*
D02*
G37*
G36*
X467360D02*
X447040D01*
Y497840D01*
X467360D01*
Y518160D01*
D02*
G37*
G36*
X417898D02*
X415222D01*
X412638Y517468D01*
X410322Y516130D01*
X408430Y514238D01*
X407092Y511922D01*
X406400Y509338D01*
Y506662D01*
X407092Y504078D01*
X408430Y501762D01*
X410322Y499870D01*
X412638Y498532D01*
X415222Y497840D01*
X417898D01*
X420482Y498532D01*
X422798Y499870D01*
X424690Y501762D01*
X426028Y504078D01*
X426720Y506662D01*
Y509338D01*
X426028Y511922D01*
X424690Y514238D01*
X422798Y516130D01*
X420482Y517468D01*
X417898Y518160D01*
D02*
G37*
G36*
X559308Y295030D02*
Y290830D01*
X563508D01*
X562735Y292698D01*
X561176Y294257D01*
X559308Y295030D01*
D02*
G37*
G36*
X556768D02*
X554900Y294257D01*
X553341Y292698D01*
X552568Y290830D01*
X556768D01*
Y295030D01*
D02*
G37*
G36*
X39601Y314960D02*
X36599D01*
X33655Y314374D01*
X30881Y313225D01*
X28385Y311558D01*
X26262Y309435D01*
X24595Y306939D01*
X23446Y304165D01*
X22860Y301221D01*
Y298219D01*
X23446Y295275D01*
X24595Y292501D01*
X26262Y290005D01*
X28385Y287882D01*
X30881Y286215D01*
X33655Y285066D01*
X36599Y284480D01*
X39601D01*
X42545Y285066D01*
X45319Y286215D01*
X47815Y287882D01*
X49938Y290005D01*
X51606Y292501D01*
X52754Y295275D01*
X53340Y298219D01*
Y301221D01*
X52754Y304165D01*
X51606Y306939D01*
X49938Y309435D01*
X47815Y311558D01*
X45319Y313225D01*
X42545Y314374D01*
X39601Y314960D01*
D02*
G37*
G36*
X563508Y288290D02*
X552568D01*
X553341Y286422D01*
X554470Y285293D01*
X554762Y284480D01*
X554470Y283667D01*
X553341Y282538D01*
X552568Y280670D01*
X563508D01*
X562735Y282538D01*
X561606Y283667D01*
X561314Y284480D01*
X561606Y285293D01*
X562735Y286422D01*
X563508Y288290D01*
D02*
G37*
G36*
Y278130D02*
X552568D01*
X553341Y276262D01*
X554470Y275133D01*
X554762Y274320D01*
X554470Y273507D01*
X553341Y272378D01*
X552568Y270510D01*
X563508D01*
X562735Y272378D01*
X561606Y273507D01*
X561314Y274320D01*
X561606Y275133D01*
X562735Y276262D01*
X563508Y278130D01*
D02*
G37*
G36*
Y267970D02*
X552568D01*
X553341Y266102D01*
X554470Y264973D01*
X554762Y264160D01*
X554470Y263347D01*
X553341Y262218D01*
X552568Y260350D01*
X563508D01*
X562735Y262218D01*
X561606Y263347D01*
X561314Y264160D01*
X561606Y264973D01*
X562735Y266102D01*
X563508Y267970D01*
D02*
G37*
G36*
Y257810D02*
X552568D01*
X553341Y255942D01*
X554470Y254813D01*
X554762Y254000D01*
X554470Y253187D01*
X553341Y252058D01*
X552568Y250190D01*
X563508D01*
X562735Y252058D01*
X561606Y253187D01*
X561314Y254000D01*
X561606Y254813D01*
X562735Y255942D01*
X563508Y257810D01*
D02*
G37*
G36*
Y247650D02*
X552568D01*
X553341Y245782D01*
X554470Y244653D01*
X554762Y243840D01*
X554470Y243027D01*
X553341Y241898D01*
X552568Y240030D01*
X563508D01*
X562735Y241898D01*
X561606Y243027D01*
X561314Y243840D01*
X561606Y244653D01*
X562735Y245782D01*
X563508Y247650D01*
D02*
G37*
G36*
Y237490D02*
X552568D01*
X553341Y235622D01*
X554470Y234493D01*
X554762Y233680D01*
X554470Y232867D01*
X553341Y231738D01*
X552568Y229870D01*
X563508D01*
X562735Y231738D01*
X561606Y232867D01*
X561314Y233680D01*
X561606Y234493D01*
X562735Y235622D01*
X563508Y237490D01*
D02*
G37*
G36*
X37061Y236220D02*
X36830D01*
Y222250D01*
X50800D01*
Y222481D01*
X50214Y225425D01*
X49065Y228199D01*
X47398Y230695D01*
X45275Y232818D01*
X42779Y234485D01*
X40005Y235634D01*
X37061Y236220D01*
D02*
G37*
G36*
X34290D02*
X34059D01*
X31115Y235634D01*
X28341Y234485D01*
X25845Y232818D01*
X23722Y230695D01*
X22055Y228199D01*
X20906Y225425D01*
X20320Y222481D01*
Y222250D01*
X34290D01*
Y236220D01*
D02*
G37*
G36*
X563508Y227330D02*
X552568D01*
X553341Y225462D01*
X554470Y224333D01*
X554762Y223520D01*
X554470Y222707D01*
X553341Y221578D01*
X552568Y219710D01*
X563508D01*
X562735Y221578D01*
X561606Y222707D01*
X561314Y223520D01*
X561606Y224333D01*
X562735Y225462D01*
X563508Y227330D01*
D02*
G37*
G36*
X364744Y219178D02*
Y214376D01*
X369546D01*
X368642Y216559D01*
X366927Y218274D01*
X364744Y219178D01*
D02*
G37*
G36*
X362204D02*
X360021Y218274D01*
X358306Y216559D01*
X357402Y214376D01*
X362204D01*
Y219178D01*
D02*
G37*
G36*
X387350Y217908D02*
Y213106D01*
X392152D01*
X391248Y215289D01*
X389533Y217004D01*
X387350Y217908D01*
D02*
G37*
G36*
X384810D02*
X382627Y217004D01*
X380912Y215289D01*
X380008Y213106D01*
X384810D01*
Y217908D01*
D02*
G37*
G36*
X563508Y217170D02*
X559308D01*
Y212970D01*
X561176Y213743D01*
X562735Y215302D01*
X563508Y217170D01*
D02*
G37*
G36*
X556768D02*
X552568D01*
X553341Y215302D01*
X554900Y213743D01*
X556768Y212970D01*
Y217170D01*
D02*
G37*
G36*
X318770Y216290D02*
Y212090D01*
X322970D01*
X322197Y213958D01*
X320638Y215517D01*
X318770Y216290D01*
D02*
G37*
G36*
X316230D02*
X314362Y215517D01*
X312803Y213958D01*
X312030Y212090D01*
X316230D01*
Y216290D01*
D02*
G37*
G36*
X369546Y211836D02*
X364744D01*
Y207034D01*
X366927Y207938D01*
X368642Y209653D01*
X369546Y211836D01*
D02*
G37*
G36*
X362204D02*
X357402D01*
X358306Y209653D01*
X360021Y207938D01*
X362204Y207034D01*
Y211836D01*
D02*
G37*
G36*
X392152Y210566D02*
X387350D01*
Y205764D01*
X389533Y206668D01*
X391248Y208383D01*
X392152Y210566D01*
D02*
G37*
G36*
X384810D02*
X380008D01*
X380912Y208383D01*
X382627Y206668D01*
X384810Y205764D01*
Y210566D01*
D02*
G37*
G36*
X50800Y219710D02*
X36830D01*
Y205740D01*
X37061D01*
X40005Y206326D01*
X42779Y207474D01*
X45275Y209142D01*
X47398Y211265D01*
X49065Y213761D01*
X50214Y216535D01*
X50800Y219479D01*
Y219710D01*
D02*
G37*
G36*
X34290D02*
X20320D01*
Y219479D01*
X20906Y216535D01*
X22055Y213761D01*
X23722Y211265D01*
X25845Y209142D01*
X28341Y207474D01*
X31115Y206326D01*
X34059Y205740D01*
X34290D01*
Y219710D01*
D02*
G37*
G36*
X322970Y209550D02*
X318770D01*
Y205350D01*
X320638Y206123D01*
X322197Y207682D01*
X322970Y209550D01*
D02*
G37*
G36*
X316230D02*
X312030D01*
X312803Y207682D01*
X314362Y206123D01*
X316230Y205350D01*
Y209550D01*
D02*
G37*
G36*
X557530Y198510D02*
Y194310D01*
X561730D01*
X560957Y196178D01*
X559398Y197737D01*
X557530Y198510D01*
D02*
G37*
G36*
X554990D02*
X553122Y197737D01*
X551563Y196178D01*
X550790Y194310D01*
X554990D01*
Y198510D01*
D02*
G37*
G36*
X561730Y191770D02*
X550790D01*
X551563Y189902D01*
X552692Y188773D01*
X552984Y187960D01*
X552692Y187147D01*
X551563Y186018D01*
X550790Y184150D01*
X561730D01*
X560957Y186018D01*
X559828Y187147D01*
X559536Y187960D01*
X559828Y188773D01*
X560957Y189902D01*
X561730Y191770D01*
D02*
G37*
G36*
X234950Y183270D02*
Y179070D01*
X239150D01*
X238377Y180938D01*
X236818Y182497D01*
X234950Y183270D01*
D02*
G37*
G36*
X232410D02*
X230542Y182497D01*
X228983Y180938D01*
X228210Y179070D01*
X232410D01*
Y183270D01*
D02*
G37*
G36*
X561730Y181610D02*
X550790D01*
X551563Y179742D01*
X552692Y178613D01*
X552984Y177800D01*
X552692Y176987D01*
X551563Y175858D01*
X550790Y173990D01*
X561730D01*
X560957Y175858D01*
X559828Y176987D01*
X559536Y177800D01*
X559828Y178613D01*
X560957Y179742D01*
X561730Y181610D01*
D02*
G37*
G36*
X239150Y176530D02*
X234950D01*
Y172330D01*
X236818Y173103D01*
X238377Y174662D01*
X239150Y176530D01*
D02*
G37*
G36*
X232410D02*
X228210D01*
X228983Y174662D01*
X230542Y173103D01*
X232410Y172330D01*
Y176530D01*
D02*
G37*
G36*
X561730Y171450D02*
X550790D01*
X551563Y169582D01*
X552692Y168453D01*
X552984Y167640D01*
X552692Y166827D01*
X551563Y165698D01*
X550790Y163830D01*
X561730D01*
X560957Y165698D01*
X559828Y166827D01*
X559536Y167640D01*
X559828Y168453D01*
X560957Y169582D01*
X561730Y171450D01*
D02*
G37*
G36*
Y161290D02*
X550790D01*
X551563Y159422D01*
X552692Y158293D01*
X552984Y157480D01*
X552692Y156667D01*
X551563Y155538D01*
X550790Y153670D01*
X561730D01*
X560957Y155538D01*
X559828Y156667D01*
X559536Y157480D01*
X559828Y158293D01*
X560957Y159422D01*
X561730Y161290D01*
D02*
G37*
G36*
Y151130D02*
X550790D01*
X551563Y149262D01*
X552692Y148133D01*
X552984Y147320D01*
X552692Y146507D01*
X551563Y145378D01*
X550790Y143510D01*
X561730D01*
X560957Y145378D01*
X559828Y146507D01*
X559536Y147320D01*
X559828Y148133D01*
X560957Y149262D01*
X561730Y151130D01*
D02*
G37*
G36*
Y140970D02*
X550790D01*
X551563Y139102D01*
X552692Y137973D01*
X552984Y137160D01*
X552692Y136347D01*
X551563Y135218D01*
X550790Y133350D01*
X561730D01*
X560957Y135218D01*
X559828Y136347D01*
X559536Y137160D01*
X559828Y137973D01*
X560957Y139102D01*
X561730Y140970D01*
D02*
G37*
G36*
Y130810D02*
X550790D01*
X551563Y128942D01*
X552692Y127813D01*
X552984Y127000D01*
X552692Y126187D01*
X551563Y125058D01*
X550790Y123190D01*
X561730D01*
X560957Y125058D01*
X559828Y126187D01*
X559536Y127000D01*
X559828Y127813D01*
X560957Y128942D01*
X561730Y130810D01*
D02*
G37*
G36*
Y120650D02*
X557530D01*
Y116450D01*
X559398Y117223D01*
X560957Y118782D01*
X561730Y120650D01*
D02*
G37*
G36*
X554990D02*
X550790D01*
X551563Y118782D01*
X553122Y117223D01*
X554990Y116450D01*
Y120650D01*
D02*
G37*
G36*
X168910Y117832D02*
Y113030D01*
X173712D01*
X172808Y115213D01*
X171093Y116928D01*
X168910Y117832D01*
D02*
G37*
G36*
X166370D02*
X164187Y116928D01*
X162472Y115213D01*
X161568Y113030D01*
X166370D01*
Y117832D01*
D02*
G37*
G36*
X143510D02*
Y113030D01*
X148312D01*
X147408Y115213D01*
X145693Y116928D01*
X143510Y117832D01*
D02*
G37*
G36*
X140970D02*
X138787Y116928D01*
X137072Y115213D01*
X136168Y113030D01*
X140970D01*
Y117832D01*
D02*
G37*
G36*
X173712Y110490D02*
X168910D01*
Y105688D01*
X171093Y106592D01*
X172808Y108307D01*
X173712Y110490D01*
D02*
G37*
G36*
X166370D02*
X161568D01*
X162472Y108307D01*
X164187Y106592D01*
X166370Y105688D01*
Y110490D01*
D02*
G37*
G36*
X148312D02*
X143510D01*
Y105688D01*
X145693Y106592D01*
X147408Y108307D01*
X148312Y110490D01*
D02*
G37*
G36*
X140970D02*
X136168D01*
X137072Y108307D01*
X138787Y106592D01*
X140970Y105688D01*
Y110490D01*
D02*
G37*
G36*
X433138Y35560D02*
X433070D01*
Y26670D01*
X441960D01*
Y26738D01*
X441268Y29322D01*
X439930Y31638D01*
X438038Y33530D01*
X435722Y34868D01*
X433138Y35560D01*
D02*
G37*
G36*
X430530D02*
X430462D01*
X427878Y34868D01*
X425562Y33530D01*
X423670Y31638D01*
X422332Y29322D01*
X421640Y26738D01*
Y26670D01*
X430530D01*
Y35560D01*
D02*
G37*
G36*
X407738D02*
X407670D01*
Y26670D01*
X416560D01*
Y26738D01*
X415868Y29322D01*
X414530Y31638D01*
X412638Y33530D01*
X410322Y34868D01*
X407738Y35560D01*
D02*
G37*
G36*
X405130D02*
X405062D01*
X402478Y34868D01*
X400162Y33530D01*
X398270Y31638D01*
X396932Y29322D01*
X396240Y26738D01*
Y26670D01*
X405130D01*
Y35560D01*
D02*
G37*
G36*
X636338D02*
X633662D01*
X631078Y34868D01*
X628762Y33530D01*
X626870Y31638D01*
X625532Y29322D01*
X624840Y26738D01*
Y24062D01*
X625532Y21478D01*
X626870Y19162D01*
X628762Y17270D01*
X631078Y15932D01*
X633662Y15240D01*
X636338D01*
X638922Y15932D01*
X641238Y17270D01*
X643130Y19162D01*
X644468Y21478D01*
X645160Y24062D01*
Y26738D01*
X644468Y29322D01*
X643130Y31638D01*
X641238Y33530D01*
X638922Y34868D01*
X636338Y35560D01*
D02*
G37*
G36*
X610938D02*
X608262D01*
X605678Y34868D01*
X603362Y33530D01*
X601470Y31638D01*
X600132Y29322D01*
X599440Y26738D01*
Y24062D01*
X600132Y21478D01*
X601470Y19162D01*
X603362Y17270D01*
X605678Y15932D01*
X608262Y15240D01*
X610938D01*
X613522Y15932D01*
X615838Y17270D01*
X617730Y19162D01*
X619068Y21478D01*
X619760Y24062D01*
Y26738D01*
X619068Y29322D01*
X617730Y31638D01*
X615838Y33530D01*
X613522Y34868D01*
X610938Y35560D01*
D02*
G37*
G36*
X585538D02*
X582862D01*
X580278Y34868D01*
X577962Y33530D01*
X576070Y31638D01*
X574732Y29322D01*
X574040Y26738D01*
Y24062D01*
X574732Y21478D01*
X576070Y19162D01*
X577962Y17270D01*
X580278Y15932D01*
X582862Y15240D01*
X585538D01*
X588122Y15932D01*
X590438Y17270D01*
X592330Y19162D01*
X593668Y21478D01*
X594360Y24062D01*
Y26738D01*
X593668Y29322D01*
X592330Y31638D01*
X590438Y33530D01*
X588122Y34868D01*
X585538Y35560D01*
D02*
G37*
G36*
X560138D02*
X557462D01*
X554878Y34868D01*
X552562Y33530D01*
X550670Y31638D01*
X549332Y29322D01*
X548640Y26738D01*
Y24062D01*
X549332Y21478D01*
X550670Y19162D01*
X552562Y17270D01*
X554878Y15932D01*
X557462Y15240D01*
X560138D01*
X562722Y15932D01*
X565038Y17270D01*
X566930Y19162D01*
X568268Y21478D01*
X568960Y24062D01*
Y26738D01*
X568268Y29322D01*
X566930Y31638D01*
X565038Y33530D01*
X562722Y34868D01*
X560138Y35560D01*
D02*
G37*
G36*
X534738D02*
X532062D01*
X529478Y34868D01*
X527162Y33530D01*
X525270Y31638D01*
X523932Y29322D01*
X523240Y26738D01*
Y24062D01*
X523932Y21478D01*
X525270Y19162D01*
X527162Y17270D01*
X529478Y15932D01*
X532062Y15240D01*
X534738D01*
X537322Y15932D01*
X539638Y17270D01*
X541530Y19162D01*
X542868Y21478D01*
X543560Y24062D01*
Y26738D01*
X542868Y29322D01*
X541530Y31638D01*
X539638Y33530D01*
X537322Y34868D01*
X534738Y35560D01*
D02*
G37*
G36*
X518160D02*
X497840D01*
Y15240D01*
X518160D01*
Y35560D01*
D02*
G37*
G36*
X458538D02*
X455862D01*
X453278Y34868D01*
X450962Y33530D01*
X449070Y31638D01*
X447732Y29322D01*
X447040Y26738D01*
Y24062D01*
X447732Y21478D01*
X449070Y19162D01*
X450962Y17270D01*
X453278Y15932D01*
X455862Y15240D01*
X458538D01*
X461122Y15932D01*
X463438Y17270D01*
X465330Y19162D01*
X466668Y21478D01*
X467360Y24062D01*
Y26738D01*
X466668Y29322D01*
X465330Y31638D01*
X463438Y33530D01*
X461122Y34868D01*
X458538Y35560D01*
D02*
G37*
G36*
X441960Y24130D02*
X433070D01*
Y15240D01*
X433138D01*
X435722Y15932D01*
X438038Y17270D01*
X439930Y19162D01*
X441268Y21478D01*
X441960Y24062D01*
Y24130D01*
D02*
G37*
G36*
X430530D02*
X421640D01*
Y24062D01*
X422332Y21478D01*
X423670Y19162D01*
X425562Y17270D01*
X427878Y15932D01*
X430462Y15240D01*
X430530D01*
Y24130D01*
D02*
G37*
G36*
X416560D02*
X407670D01*
Y15240D01*
X407738D01*
X410322Y15932D01*
X412638Y17270D01*
X414530Y19162D01*
X415868Y21478D01*
X416560Y24062D01*
Y24130D01*
D02*
G37*
G36*
X405130D02*
X396240D01*
Y24062D01*
X396932Y21478D01*
X398270Y19162D01*
X400162Y17270D01*
X402478Y15932D01*
X405062Y15240D01*
X405130D01*
Y24130D01*
D02*
G37*
G36*
X382338Y35560D02*
X379662D01*
X377078Y34868D01*
X374762Y33530D01*
X372870Y31638D01*
X371532Y29322D01*
X370840Y26738D01*
Y24062D01*
X371532Y21478D01*
X372870Y19162D01*
X374762Y17270D01*
X377078Y15932D01*
X379662Y15240D01*
X382338D01*
X384922Y15932D01*
X387238Y17270D01*
X389130Y19162D01*
X390468Y21478D01*
X391160Y24062D01*
Y26738D01*
X390468Y29322D01*
X389130Y31638D01*
X387238Y33530D01*
X384922Y34868D01*
X382338Y35560D01*
D02*
G37*
G36*
X356938D02*
X354262D01*
X351678Y34868D01*
X349362Y33530D01*
X347470Y31638D01*
X346132Y29322D01*
X345440Y26738D01*
Y24062D01*
X346132Y21478D01*
X347470Y19162D01*
X349362Y17270D01*
X351678Y15932D01*
X354262Y15240D01*
X356938D01*
X359522Y15932D01*
X361838Y17270D01*
X363730Y19162D01*
X365068Y21478D01*
X365760Y24062D01*
Y26738D01*
X365068Y29322D01*
X363730Y31638D01*
X361838Y33530D01*
X359522Y34868D01*
X356938Y35560D01*
D02*
G37*
G36*
X331538D02*
X328862D01*
X326278Y34868D01*
X323962Y33530D01*
X322070Y31638D01*
X320732Y29322D01*
X320040Y26738D01*
Y24062D01*
X320732Y21478D01*
X322070Y19162D01*
X323962Y17270D01*
X326278Y15932D01*
X328862Y15240D01*
X331538D01*
X334122Y15932D01*
X336438Y17270D01*
X338330Y19162D01*
X339668Y21478D01*
X340360Y24062D01*
Y26738D01*
X339668Y29322D01*
X338330Y31638D01*
X336438Y33530D01*
X334122Y34868D01*
X331538Y35560D01*
D02*
G37*
G36*
X306138D02*
X303462D01*
X300878Y34868D01*
X298562Y33530D01*
X296670Y31638D01*
X295332Y29322D01*
X294640Y26738D01*
Y24062D01*
X295332Y21478D01*
X296670Y19162D01*
X298562Y17270D01*
X300878Y15932D01*
X303462Y15240D01*
X306138D01*
X308722Y15932D01*
X311038Y17270D01*
X312930Y19162D01*
X314268Y21478D01*
X314960Y24062D01*
Y26738D01*
X314268Y29322D01*
X312930Y31638D01*
X311038Y33530D01*
X308722Y34868D01*
X306138Y35560D01*
D02*
G37*
G36*
X289560D02*
X269240D01*
Y15240D01*
X289560D01*
Y35560D01*
D02*
G37*
%LPD*%
D25*
X482600Y508000D02*
D03*
X508000D02*
D03*
X533400D02*
D03*
X558800D02*
D03*
X584200D02*
D03*
X609600D02*
D03*
X635000D02*
D03*
Y25400D02*
D03*
X609600D02*
D03*
X584200D02*
D03*
X558800D02*
D03*
X533400D02*
D03*
X416560Y508000D02*
D03*
X391040Y508018D02*
D03*
X365640D02*
D03*
X340241D02*
D03*
X314841D02*
D03*
X289440D02*
D03*
X264041D02*
D03*
X238640D02*
D03*
X213241D02*
D03*
X304800Y25400D02*
D03*
X330200D02*
D03*
X355600D02*
D03*
X381000D02*
D03*
X406400D02*
D03*
X431800D02*
D03*
X457200D02*
D03*
D26*
Y508000D02*
D03*
X508000Y25400D02*
D03*
X187840Y508018D02*
D03*
X279400Y25400D02*
D03*
D27*
X35560Y220980D02*
D03*
X38100Y299720D02*
D03*
D30*
X142240Y111760D02*
D03*
X386080Y211836D02*
D03*
X363474Y213106D02*
D03*
X167640Y111760D02*
D03*
D31*
X558038Y289560D02*
D03*
Y279400D02*
D03*
Y269240D02*
D03*
Y259080D02*
D03*
Y248920D02*
D03*
Y238760D02*
D03*
Y228600D02*
D03*
Y218440D02*
D03*
X556260Y121920D02*
D03*
Y132080D02*
D03*
Y142240D02*
D03*
Y152400D02*
D03*
Y162560D02*
D03*
Y172720D02*
D03*
Y182880D02*
D03*
Y193040D02*
D03*
X317500Y210820D02*
D03*
X233680Y177800D02*
D03*
M02*
