G04*
G04 #@! TF.GenerationSoftware,Altium Limited,Altium Designer,24.1.2 (44)*
G04*
G04 Layer_Color=65535*
%FSLAX44Y44*%
%MOMM*%
G71*
G04*
G04 #@! TF.SameCoordinates,3802B111-1C7E-4A17-9201-CC646305CB20*
G04*
G04*
G04 #@! TF.FilePolarity,Positive*
G04*
G01*
G75*
%ADD10C,0.2500*%
%ADD11C,0.2000*%
%ADD12C,0.4000*%
%ADD13C,0.1500*%
%ADD14C,0.2540*%
D10*
X242550Y180357D02*
G03*
X242550Y180357I-1250J0D01*
G01*
D11*
X235920Y157840D02*
X236170D01*
X261670D02*
X292170D01*
X317670D02*
X317920D01*
Y75840D02*
Y157840D01*
X235920Y75840D02*
X236170D01*
X261670D02*
X292170D01*
X317670D02*
X317920D01*
X235920D02*
Y157840D01*
X267800Y188857D02*
Y216857D01*
X233800Y188857D02*
Y216857D01*
X207888Y129150D02*
Y130650D01*
X222388Y129150D02*
Y130650D01*
X390330Y190660D02*
Y193660D01*
X381830Y190660D02*
Y193660D01*
X367470Y189880D02*
Y192880D01*
X358970Y189880D02*
Y192880D01*
D12*
X551040Y216460D02*
Y286460D01*
X548980Y119940D02*
Y189940D01*
D13*
X162140Y135440D02*
Y141440D01*
X173140Y135440D02*
Y141440D01*
X136740Y135320D02*
Y141320D01*
X147740Y135320D02*
Y141320D01*
D14*
X292106Y218442D02*
Y228598D01*
X297184D01*
X298877Y226906D01*
Y223520D01*
X297184Y221827D01*
X292106D01*
X295491D02*
X298877Y218442D01*
X303955D02*
Y226906D01*
Y223520D01*
X302262D01*
X305648D01*
X303955D01*
Y226906D01*
X305648Y228598D01*
X310726D02*
Y218442D01*
X315805D01*
X317498Y220134D01*
Y221827D01*
Y223520D01*
X315805Y225213D01*
X310726D01*
X320883Y228598D02*
Y218442D01*
X325961D01*
X327654Y220134D01*
Y221827D01*
Y223520D01*
X325961Y225213D01*
X320883D01*
X283130Y170944D02*
Y181100D01*
X288209D01*
X289902Y179408D01*
Y176022D01*
X288209Y174329D01*
X283130D01*
X286516D02*
X289902Y170944D01*
X294980D02*
Y179408D01*
Y176022D01*
X293287D01*
X296673D01*
X294980D01*
Y179408D01*
X296673Y181100D01*
X301751D02*
Y170944D01*
X306829D01*
X308522Y172636D01*
Y174329D01*
Y176022D01*
X306829Y177715D01*
X301751D01*
X313601Y179408D02*
Y177715D01*
X311908D01*
X315294D01*
X313601D01*
Y172636D01*
X315294Y170944D01*
X256119Y177544D02*
Y167388D01*
X262890D01*
X266276D02*
X269661D01*
X267968D01*
Y177544D01*
X266276Y175852D01*
X224369Y238758D02*
Y230294D01*
X226062Y228602D01*
X229447D01*
X231140Y230294D01*
Y238758D01*
X234526Y228602D02*
X237911D01*
X236218D01*
Y238758D01*
X234526Y237066D01*
X201679Y97620D02*
X199986Y99312D01*
X196601D01*
X194908Y97620D01*
Y90848D01*
X196601Y89156D01*
X199986D01*
X201679Y90848D01*
X205065Y99312D02*
Y89156D01*
X210143D01*
X211836Y90848D01*
Y92541D01*
Y94234D01*
X210143Y95927D01*
X205065D01*
X215222Y89156D02*
X220300D01*
X221993Y90848D01*
X220300Y92541D01*
X216914D01*
X215222Y94234D01*
X216914Y95927D01*
X221993D01*
X227071Y97620D02*
Y95927D01*
X225378D01*
X228764D01*
X227071D01*
Y90848D01*
X228764Y89156D01*
X476758Y306321D02*
Y296164D01*
X481836D01*
X483529Y297857D01*
Y304628D01*
X481836Y306321D01*
X476758D01*
X493686Y296164D02*
X486915D01*
X493686Y302935D01*
Y304628D01*
X491993Y306321D01*
X488607D01*
X486915Y304628D01*
X384723Y225380D02*
X383030Y227073D01*
X379645D01*
X377952Y225380D01*
Y218609D01*
X379645Y216916D01*
X383030D01*
X384723Y218609D01*
X389801Y216916D02*
X393187D01*
X394880Y218609D01*
Y221994D01*
X393187Y223687D01*
X389801D01*
X388109Y221994D01*
Y218609D01*
X389801Y216916D01*
X398265Y223687D02*
Y218609D01*
X399958Y216916D01*
X405037D01*
Y223687D01*
X410115Y225380D02*
Y223687D01*
X408422D01*
X411808D01*
X410115D01*
Y218609D01*
X411808Y216916D01*
X423657D02*
X416886D01*
X423657Y223687D01*
Y225380D01*
X421964Y227073D01*
X418579D01*
X416886Y225380D01*
X168315Y169754D02*
X166622Y171447D01*
X163237D01*
X161544Y169754D01*
Y162983D01*
X163237Y161290D01*
X166622D01*
X168315Y162983D01*
X171701Y161290D02*
X175086D01*
X173393D01*
Y168061D01*
X171701D01*
X180165Y161290D02*
Y168061D01*
X185243D01*
X186936Y166368D01*
Y161290D01*
X197092D02*
X190321D01*
X197092Y168061D01*
Y169754D01*
X195400Y171447D01*
X192014D01*
X190321Y169754D01*
X435187Y513078D02*
X431802D01*
X433494D01*
Y504614D01*
X431802Y502922D01*
X430109D01*
X428416Y504614D01*
X443651Y502922D02*
Y513078D01*
X438573Y508000D01*
X445344D01*
X485987Y15238D02*
X482602D01*
X484294D01*
Y6774D01*
X482602Y5082D01*
X480909D01*
X479216Y6774D01*
X496144Y5082D02*
X489373D01*
X496144Y11853D01*
Y13546D01*
X494451Y15238D01*
X491066D01*
X489373Y13546D01*
X150707Y513078D02*
X147322D01*
X149014D01*
Y504614D01*
X147322Y502922D01*
X145629D01*
X143936Y504614D01*
X154093Y511386D02*
X155786Y513078D01*
X159171D01*
X160864Y511386D01*
Y509693D01*
X159171Y508000D01*
X157478D01*
X159171D01*
X160864Y506307D01*
Y504614D01*
X159171Y502922D01*
X155786D01*
X154093Y504614D01*
X130390Y169646D02*
X128697Y171338D01*
X125311D01*
X123618Y169646D01*
Y162874D01*
X125311Y161182D01*
X128697D01*
X130390Y162874D01*
X133775Y161182D02*
X137161D01*
X135468D01*
Y167953D01*
X133775D01*
X142239Y161182D02*
Y167953D01*
X147317D01*
X149010Y166260D01*
Y161182D01*
X152396D02*
X155781D01*
X154089D01*
Y171338D01*
X152396Y169646D01*
X357213Y163152D02*
X355521Y164844D01*
X352135D01*
X350442Y163152D01*
Y156380D01*
X352135Y154688D01*
X355521D01*
X357213Y156380D01*
X362292Y154688D02*
X365677D01*
X367370Y156380D01*
Y159766D01*
X365677Y161459D01*
X362292D01*
X360599Y159766D01*
Y156380D01*
X362292Y154688D01*
X370756Y161459D02*
Y156380D01*
X372448Y154688D01*
X377527D01*
Y161459D01*
X382605Y163152D02*
Y161459D01*
X380912D01*
X384298D01*
X382605D01*
Y156380D01*
X384298Y154688D01*
X389376D02*
X392762D01*
X391069D01*
Y164844D01*
X389376Y163152D01*
X474726Y209801D02*
Y199644D01*
X479804D01*
X481497Y201337D01*
Y208108D01*
X479804Y209801D01*
X474726D01*
X484883Y199644D02*
X488268D01*
X486576D01*
Y209801D01*
X484883Y208108D01*
X254000Y35558D02*
X250614D01*
X252307D01*
Y27094D01*
X250614Y25402D01*
X248922D01*
X247229Y27094D01*
X257386Y25402D02*
X260771D01*
X259078D01*
Y35558D01*
X257386Y33866D01*
X67307Y231898D02*
X64767Y234437D01*
X59689D01*
X57150Y231898D01*
Y221741D01*
X59689Y219202D01*
X64767D01*
X67307Y221741D01*
Y226819D01*
X62228D01*
X72385Y219202D02*
Y234437D01*
X82542Y219202D01*
Y234437D01*
X87620D02*
Y219202D01*
X95238D01*
X97777Y221741D01*
Y231898D01*
X95238Y234437D01*
X87620D01*
X57150Y300990D02*
Y316225D01*
X64767D01*
X67307Y313686D01*
Y308608D01*
X64767Y306068D01*
X57150D01*
X72385Y316225D02*
Y300990D01*
X77463Y306068D01*
X82542Y300990D01*
Y316225D01*
X87620Y300990D02*
Y316225D01*
X95238D01*
X97777Y313686D01*
Y308608D01*
X95238Y306068D01*
X87620D01*
X92698D02*
X97777Y300990D01*
M02*
